<?xml version="1.0" encoding="UTF-8" standalone="no"?><!DOCTYPE svg PUBLIC "-//W3C//DTD SVG 1.1//EN" "http://www.w3.org/Graphics/SVG/1.1/DTD/svg11.dtd"><svg width="100%" height="100%" viewBox="0 0 512 512" version="1.1" xmlns="http://www.w3.org/2000/svg" xmlns:xlink="http://www.w3.org/1999/xlink" xml:space="preserve" style="fill-rule:evenodd;clip-rule:evenodd;stroke-linejoin:round;stroke-miterlimit:1.41421;"><rect id="画板1" x="0" y="0" width="512" height="512" style="fill:none;"/><clipPath id="_clip1"><rect id="画板11" x="0" y="0" width="512" height="512"/></clipPath><g clip-path="url(#_clip1)"><g transform="matrix(1.20585,0,0,1.20585,-157.732,-85.9912)"><path d="M224.197,324.57c5.885,0 10.858,2.06 14.919,6.179c4.06,4.12 6.091,9.122 6.091,15.007c0,5.767 -2.06,10.711 -6.18,14.83c-4.119,4.12 -9.063,6.18 -14.83,6.18c-5.885,0 -10.887,-2.06 -15.007,-6.18c-4.119,-4.119 -6.179,-9.063 -6.179,-14.83c0,-5.885 2.06,-10.887 6.179,-15.007c4.12,-4.119 9.122,-6.179 15.007,-6.179Z" style="fill:none;"/><path d="M312.119,116.416c5.532,0 10.24,1.943 14.124,5.827c3.884,3.884 5.827,8.592 5.827,14.124c0,5.414 -1.943,10.063 -5.827,13.947c-3.884,3.884 -8.592,5.826 -14.124,5.826c-5.414,0 -10.093,-1.942 -14.035,-5.826c-3.943,-3.884 -5.915,-8.533 -5.915,-13.947c0,-5.532 1.942,-10.24 5.826,-14.124c3.884,-3.884 8.592,-5.827 14.124,-5.827Zm-52.259,348.335l-2.118,-12.535c4.001,0.353 6.709,0.53 8.121,0.53c3.649,0 6.885,-0.765 9.71,-2.295c4.002,-2.001 7.621,-5.15 10.858,-9.446c3.237,-4.296 5.709,-9.769 7.415,-16.419c1.707,-6.65 2.825,-17.655 3.355,-33.015c0.529,-15.36 0.794,-25.335 0.794,-29.925l0,-99.045c0,-3.061 -0.176,-10.77 -0.529,-23.129c-0.236,-7.768 -0.765,-12.829 -1.589,-15.183c-0.471,-1.177 -1.236,-2.119 -2.296,-2.825c-1.765,-1.177 -4.884,-1.765 -9.357,-1.765c-6.473,0 -11.593,-0.059 -15.36,-0.177l0,-10.063c25.306,-2.825 43.667,-7.357 55.084,-13.595c1.883,-1.059 3.355,-1.589 4.414,-1.589c0.824,0 1.501,0.295 2.03,0.883c0.53,0.589 0.795,1.471 0.795,2.648c0,0.942 -0.059,2.119 -0.177,3.531c-0.353,3.178 -0.647,8.004 -0.883,14.478c-0.588,12.24 -1,26.188 -1.235,41.842c-0.471,22.952 -0.707,35.899 -0.707,38.841l0.53,48.552c0,31.19 -2.354,54.083 -7.062,68.678c-3.413,10.358 -8.239,19.509 -14.477,27.454c-6.238,7.944 -12.859,13.888 -19.862,17.831c-7.003,3.943 -14.86,5.915 -23.57,5.915c-0.941,0 -2.236,-0.059 -3.884,-0.177Z" style="fill:none;"/><path d="M370.381,311.682l10.593,0c0.118,6.826 0.471,12.241 1.059,16.242c0.589,4.002 1.589,7.916 3.002,11.741c1.412,3.825 3.59,7.062 6.532,9.71c2.943,2.649 6.15,4.708 9.622,6.18c3.472,1.471 7.003,2.442 10.593,2.913c3.59,0.47 9.034,0.706 16.331,0.706c12.006,0 21.863,-3.178 29.572,-9.534c7.71,-6.356 11.564,-15.066 11.564,-26.129c0,-4.944 -1.206,-9.299 -3.619,-13.065c-2.413,-3.767 -5.885,-6.709 -10.416,-8.828c-4.532,-2.118 -14.271,-4.884 -29.219,-8.298c-14.948,-3.413 -24.6,-5.885 -28.955,-7.415c-6.591,-2.471 -11.829,-5.473 -15.713,-9.004c-3.884,-3.531 -6.974,-8.003 -9.269,-13.418c-2.295,-5.414 -3.442,-11.299 -3.442,-17.655c0,-9.298 2.442,-17.861 7.326,-25.688c4.885,-7.827 12.565,-14.183 23.04,-19.067c10.476,-4.885 21.893,-7.327 34.251,-7.327c7.415,0 16.007,1.03 25.777,3.089c9.769,2.06 17.713,4.62 23.834,7.68c-0.824,13.065 -1.413,26.365 -1.766,39.901l-10.063,0c-0.589,-8.592 -1.265,-14.242 -2.03,-16.949c-0.765,-2.707 -1.795,-5.12 -3.09,-7.239c-1.295,-2.118 -3.531,-4.384 -6.709,-6.797c-3.178,-2.413 -7.268,-4.561 -12.27,-6.444c-5.002,-1.883 -11.152,-2.825 -18.45,-2.825c-10.357,0 -18.685,3.06 -24.982,9.181c-6.297,6.12 -9.445,13.3 -9.445,21.539c0,4.59 0.912,8.533 2.736,11.829c1.825,3.296 4.267,5.973 7.327,8.033c3.06,2.06 7.357,3.914 12.888,5.561l29.308,7.239c14.83,3.766 25.041,7.003 30.631,9.71c5.591,2.707 10.093,6.915 13.507,12.624c3.413,5.708 5.12,12.564 5.12,20.568c0,15.889 -6.562,29.749 -19.686,41.578c-13.123,11.828 -30.69,17.743 -52.7,17.743c-10.123,0 -23.599,-1.53 -40.43,-4.59c-9.299,-1.766 -14.301,-3.002 -15.007,-3.708c-0.471,-0.353 -0.706,-0.942 -0.706,-1.766c0,-0.823 0.117,-1.824 0.353,-3.001c1.059,-5.061 1.765,-10.004 2.118,-14.83c0.353,-4.826 0.648,-14.889 0.883,-30.19Z" style="fill:none;"/><path d="M224.197,324.57c5.885,0 10.858,2.06 14.919,6.179c4.06,4.12 6.091,9.122 6.091,15.007c0,5.767 -2.06,10.711 -6.18,14.83c-4.119,4.12 -9.063,6.18 -14.83,6.18c-5.885,0 -10.887,-2.06 -15.007,-6.18c-4.119,-4.119 -6.179,-9.063 -6.179,-14.83c0,-5.885 2.06,-10.887 6.179,-15.007c4.12,-4.119 9.122,-6.179 15.007,-6.179Z" style="fill-rule:nonzero;"/><path d="M312.119,116.416c5.532,0 10.24,1.943 14.124,5.827c3.884,3.884 5.827,8.592 5.827,14.124c0,5.414 -1.943,10.063 -5.827,13.947c-3.884,3.884 -8.592,5.826 -14.124,5.826c-5.414,0 -10.093,-1.942 -14.035,-5.826c-3.943,-3.884 -5.915,-8.533 -5.915,-13.947c0,-5.532 1.942,-10.24 5.826,-14.124c3.884,-3.884 8.592,-5.827 14.124,-5.827Zm-52.259,348.335l-2.118,-12.535c4.001,0.353 6.709,0.53 8.121,0.53c3.649,0 6.885,-0.765 9.71,-2.295c4.002,-2.001 7.621,-5.15 10.858,-9.446c3.237,-4.296 5.709,-9.769 7.415,-16.419c1.707,-6.65 2.825,-17.655 3.355,-33.015c0.529,-15.36 0.794,-25.335 0.794,-29.925l0,-99.045c0,-3.061 -0.176,-10.77 -0.529,-23.129c-0.236,-7.768 -0.765,-12.829 -1.589,-15.183c-0.471,-1.177 -1.236,-2.119 -2.296,-2.825c-1.765,-1.177 -4.884,-1.765 -9.357,-1.765c-6.473,0 -11.593,-0.059 -15.36,-0.177l0,-10.063c25.306,-2.825 43.667,-7.357 55.084,-13.595c1.883,-1.059 3.355,-1.589 4.414,-1.589c0.824,0 1.501,0.295 2.03,0.883c0.53,0.589 0.795,1.471 0.795,2.648c0,0.942 -0.059,2.119 -0.177,3.531c-0.353,3.178 -0.647,8.004 -0.883,14.478c-0.588,12.24 -1,26.188 -1.235,41.842c-0.471,22.952 -0.707,35.899 -0.707,38.841l0.53,48.552c0,31.19 -2.354,54.083 -7.062,68.678c-3.413,10.358 -8.239,19.509 -14.477,27.454c-6.238,7.944 -12.859,13.888 -19.862,17.831c-7.003,3.943 -14.86,5.915 -23.57,5.915c-0.941,0 -2.236,-0.059 -3.884,-0.177Z" style="fill-rule:nonzero;"/><path d="M370.381,311.682l10.593,0c0.118,6.826 0.471,12.241 1.059,16.242c0.589,4.002 1.589,7.916 3.002,11.741c1.412,3.825 3.59,7.062 6.532,9.71c2.943,2.649 6.15,4.708 9.622,6.18c3.472,1.471 7.003,2.442 10.593,2.913c3.59,0.47 9.034,0.706 16.331,0.706c12.006,0 21.863,-3.178 29.572,-9.534c7.71,-6.356 11.564,-15.066 11.564,-26.129c0,-4.944 -1.206,-9.299 -3.619,-13.065c-2.413,-3.767 -5.885,-6.709 -10.416,-8.828c-4.532,-2.118 -14.271,-4.884 -29.219,-8.298c-14.948,-3.413 -24.6,-5.885 -28.955,-7.415c-6.591,-2.471 -11.829,-5.473 -15.713,-9.004c-3.884,-3.531 -6.974,-8.003 -9.269,-13.418c-2.295,-5.414 -3.442,-11.299 -3.442,-17.655c0,-9.298 2.442,-17.861 7.326,-25.688c4.885,-7.827 12.565,-14.183 23.04,-19.067c10.476,-4.885 21.893,-7.327 34.251,-7.327c7.415,0 16.007,1.03 25.777,3.089c9.769,2.06 17.713,4.62 23.834,7.68c-0.824,13.065 -1.413,26.365 -1.766,39.901l-10.063,0c-0.589,-8.592 -1.265,-14.242 -2.03,-16.949c-0.765,-2.707 -1.795,-5.12 -3.09,-7.239c-1.295,-2.118 -3.531,-4.384 -6.709,-6.797c-3.178,-2.413 -7.268,-4.561 -12.27,-6.444c-5.002,-1.883 -11.152,-2.825 -18.45,-2.825c-10.357,0 -18.685,3.06 -24.982,9.181c-6.297,6.12 -9.445,13.3 -9.445,21.539c0,4.59 0.912,8.533 2.736,11.829c1.825,3.296 4.267,5.973 7.327,8.033c3.06,2.06 7.357,3.914 12.888,5.561l29.308,7.239c14.83,3.766 25.041,7.003 30.631,9.71c5.591,2.707 10.093,6.915 13.507,12.624c3.413,5.708 5.12,12.564 5.12,20.568c0,15.889 -6.562,29.749 -19.686,41.578c-13.123,11.828 -30.69,17.743 -52.7,17.743c-10.123,0 -23.599,-1.53 -40.43,-4.59c-9.299,-1.766 -14.301,-3.002 -15.007,-3.708c-0.471,-0.353 -0.706,-0.942 -0.706,-1.766c0,-0.823 0.117,-1.824 0.353,-3.001c1.059,-5.061 1.765,-10.004 2.118,-14.83c0.353,-4.826 0.648,-14.889 0.883,-30.19Z" style="fill-rule:nonzero;"/></g></g></svg>