<?xml version="1.0" encoding="UTF-8" standalone="no"?><!DOCTYPE svg PUBLIC "-//W3C//DTD SVG 1.1//EN" "http://www.w3.org/Graphics/SVG/1.1/DTD/svg11.dtd"><svg width="100%" height="100%" viewBox="0 0 1024 512" version="1.1" xmlns="http://www.w3.org/2000/svg" xmlns:xlink="http://www.w3.org/1999/xlink" xml:space="preserve" style="fill-rule:evenodd;clip-rule:evenodd;stroke-linejoin:round;stroke-miterlimit:1.41421;"><rect id="画板1" x="0" y="0" width="1024" height="512" style="fill:none;"/><clipPath id="_clip1"><rect id="画板11" x="0" y="0" width="1024" height="512"/></clipPath><g clip-path="url(#_clip1)"><rect x="0" y="0" width="1024" height="512" style="fill:#ffb200;"/><g transform="matrix(1.20585,0,0,1.20585,-78.2531,-65.3811)"><path d="M335.071,337.635l-5.65,12.711c-8.121,5.061 -14.065,8.416 -17.831,10.064c-5.532,2.471 -11.859,4.561 -18.98,6.267c-7.12,1.707 -14.624,2.56 -22.51,2.56c-15.536,0 -29.601,-3.237 -42.195,-9.71c-12.594,-6.474 -22.393,-16.154 -29.396,-29.043c-7.003,-12.888 -10.505,-27.983 -10.505,-45.285c0,-13.536 1.854,-25.747 5.561,-36.634c3.708,-10.888 7.916,-18.921 12.624,-24.099c3.413,-3.767 8.71,-8.092 15.889,-12.977c7.18,-4.884 14.301,-8.739 21.363,-11.564c9.298,-3.884 19.362,-5.826 30.19,-5.826c13.183,0 25.1,3.001 35.752,9.004c10.652,6.003 18.449,14.183 23.393,24.54c4.943,10.358 7.415,22.069 7.415,35.134c0,3.296 -0.236,7.298 -0.706,12.006c-8.475,1.647 -16.066,2.707 -22.775,3.177c-12.712,0.942 -25.424,1.413 -38.135,1.413l-56.673,0c0.235,16.831 3.148,30.455 8.739,40.871c5.591,10.417 13.3,18.097 23.128,23.04c9.828,4.944 20.039,7.415 30.632,7.415c7.18,0 14.33,-1.147 21.451,-3.442c7.121,-2.296 15.919,-6.503 26.394,-12.624l2.825,3.002Zm-113.169,-72.21c3.295,0.353 9.534,0.707 18.714,1.06c17.538,0.588 29.602,0.882 36.193,0.882c15.654,0 25.953,-0.294 30.897,-0.882c0.117,-2.825 0.176,-5.003 0.176,-6.533c0,-18.596 -3.766,-32.25 -11.299,-40.959c-7.533,-8.71 -17.596,-13.065 -30.19,-13.065c-13.301,0 -24.011,4.767 -32.133,14.3c-8.121,9.534 -12.24,24.6 -12.358,45.197Z" style="fill:none;"/><path d="M365.614,226.937l0,-7.238c9.181,-3.884 17.302,-8.004 24.364,-12.359l0,-10.593c0,-15.301 0.971,-26.1 2.913,-32.397c1.942,-6.297 4.679,-11.917 8.21,-16.861c5.296,-7.297 13.653,-16.595 25.07,-27.895c7.651,-7.415 13.3,-12.064 16.949,-13.947c4.826,-2.472 10.475,-3.708 16.949,-3.708c4.59,0 9.298,0.765 14.124,2.295l0.706,29.308l-4.061,1.589c-3.648,-3.06 -7.268,-5.297 -10.857,-6.709c-3.59,-1.412 -7.798,-2.119 -12.624,-2.119c-6.356,0 -11.534,1.295 -15.536,3.884c-4.002,2.59 -6.915,6.297 -8.74,11.123c-1.824,4.826 -2.736,14.654 -2.736,29.484l0,36.546l18.714,0c9.416,0 18.656,-0.353 27.719,-1.059l1.765,1.059l-3.531,18.185c-10.24,-0.471 -17.773,-0.706 -22.598,-0.706c-4.944,0 -12.3,0.235 -22.069,0.706l0,63.205c0,7.768 0.294,21.951 0.883,42.549c0.117,7.297 0.412,11.946 0.882,13.947c0.471,2.001 1.089,3.443 1.854,4.326c0.765,0.883 2.031,1.618 3.796,2.207c3.531,1.059 13.065,2.118 28.601,3.178l0,10.063c-27.424,-0.824 -44.137,-1.236 -50.14,-1.236c-5.414,0 -20.539,0.412 -45.374,1.236l0,-10.063l16.773,-0.177c2.471,-0.118 4.384,-0.559 5.738,-1.324c1.353,-0.765 2.383,-1.736 3.089,-2.913c1.295,-2.354 2.119,-6.533 2.472,-12.535c0,-1.53 0.353,-18.42 1.059,-50.67l0,-61.793l-24.364,1.412Z" style="fill:none;"/><path d="M517.801,324.57c5.885,0 10.858,2.06 14.918,6.179c4.061,4.12 6.091,9.122 6.091,15.007c0,5.767 -2.059,10.711 -6.179,14.83c-4.119,4.12 -9.063,6.18 -14.83,6.18c-5.885,0 -10.887,-2.06 -15.007,-6.18c-4.119,-4.119 -6.179,-9.063 -6.179,-14.83c0,-5.885 2.06,-10.887 6.179,-15.007c4.12,-4.119 9.122,-6.179 15.007,-6.179Z" style="fill:none;"/><path d="M605.723,116.416c5.532,0 10.24,1.943 14.124,5.827c3.884,3.884 5.826,8.592 5.826,14.124c0,5.414 -1.942,10.063 -5.826,13.947c-3.884,3.884 -8.592,5.826 -14.124,5.826c-5.414,0 -10.093,-1.942 -14.036,-5.826c-3.943,-3.884 -5.914,-8.533 -5.914,-13.947c0,-5.532 1.942,-10.24 5.826,-14.124c3.884,-3.884 8.592,-5.827 14.124,-5.827Zm-52.259,348.335l-2.118,-12.535c4.001,0.353 6.709,0.53 8.121,0.53c3.649,0 6.885,-0.765 9.71,-2.295c4.002,-2.001 7.621,-5.15 10.858,-9.446c3.237,-4.296 5.709,-9.769 7.415,-16.419c1.707,-6.65 2.825,-17.655 3.355,-33.015c0.529,-15.36 0.794,-25.335 0.794,-29.925l0,-99.045c0,-3.061 -0.176,-10.77 -0.529,-23.129c-0.236,-7.768 -0.766,-12.829 -1.589,-15.183c-0.471,-1.177 -1.236,-2.119 -2.296,-2.825c-1.765,-1.177 -4.884,-1.765 -9.357,-1.765c-6.473,0 -11.593,-0.059 -15.36,-0.177l0,-10.063c25.306,-2.825 43.667,-7.357 55.084,-13.595c1.883,-1.059 3.355,-1.589 4.414,-1.589c0.824,0 1.501,0.295 2.03,0.883c0.53,0.589 0.795,1.471 0.795,2.648c0,0.942 -0.059,2.119 -0.177,3.531c-0.353,3.178 -0.647,8.004 -0.883,14.478c-0.588,12.24 -1,26.188 -1.235,41.842c-0.471,22.952 -0.707,35.899 -0.707,38.841l0.53,48.552c0,31.19 -2.354,54.083 -7.062,68.678c-3.413,10.358 -8.239,19.509 -14.477,27.454c-6.238,7.944 -12.859,13.888 -19.862,17.831c-7.003,3.943 -14.86,5.915 -23.57,5.915c-0.941,0 -2.236,-0.059 -3.884,-0.177Z" style="fill:none;"/><path d="M663.985,311.682l10.593,0c0.118,6.826 0.471,12.241 1.059,16.242c0.589,4.002 1.589,7.916 3.002,11.741c1.412,3.825 3.59,7.062 6.532,9.71c2.943,2.649 6.15,4.708 9.622,6.18c3.472,1.471 7.003,2.442 10.593,2.913c3.59,0.47 9.034,0.706 16.331,0.706c12.006,0 21.863,-3.178 29.572,-9.534c7.71,-6.356 11.564,-15.066 11.564,-26.129c0,-4.944 -1.206,-9.299 -3.619,-13.065c-2.413,-3.767 -5.885,-6.709 -10.416,-8.828c-4.532,-2.118 -14.272,-4.884 -29.219,-8.298c-14.948,-3.413 -24.6,-5.885 -28.955,-7.415c-6.591,-2.471 -11.829,-5.473 -15.713,-9.004c-3.884,-3.531 -6.974,-8.003 -9.269,-13.418c-2.295,-5.414 -3.443,-11.299 -3.443,-17.655c0,-9.298 2.443,-17.861 7.327,-25.688c4.885,-7.827 12.565,-14.183 23.04,-19.067c10.476,-4.885 21.893,-7.327 34.251,-7.327c7.415,0 16.007,1.03 25.776,3.089c9.77,2.06 17.714,4.62 23.835,7.68c-0.824,13.065 -1.413,26.365 -1.766,39.901l-10.063,0c-0.589,-8.592 -1.265,-14.242 -2.03,-16.949c-0.765,-2.707 -1.795,-5.12 -3.09,-7.239c-1.295,-2.118 -3.531,-4.384 -6.709,-6.797c-3.178,-2.413 -7.268,-4.561 -12.27,-6.444c-5.003,-1.883 -11.152,-2.825 -18.45,-2.825c-10.357,0 -18.685,3.06 -24.982,9.181c-6.297,6.12 -9.445,13.3 -9.445,21.539c0,4.59 0.912,8.533 2.736,11.829c1.825,3.296 4.267,5.973 7.327,8.033c3.06,2.06 7.356,3.914 12.888,5.561l29.308,7.239c14.83,3.766 25.041,7.003 30.631,9.71c5.591,2.707 10.093,6.915 13.507,12.624c3.413,5.708 5.12,12.564 5.12,20.568c0,15.889 -6.562,29.749 -19.686,41.578c-13.124,11.828 -30.69,17.743 -52.7,17.743c-10.123,0 -23.599,-1.53 -40.43,-4.59c-9.299,-1.766 -14.301,-3.002 -15.007,-3.708c-0.471,-0.353 -0.706,-0.942 -0.706,-1.766c0,-0.823 0.117,-1.824 0.353,-3.001c1.059,-5.061 1.765,-10.004 2.118,-14.83c0.353,-4.826 0.648,-14.889 0.883,-30.19Z" style="fill:none;"/><path d="M335.071,337.635l-5.65,12.711c-8.121,5.061 -14.065,8.416 -17.831,10.064c-5.532,2.471 -11.859,4.561 -18.98,6.267c-7.12,1.707 -14.624,2.56 -22.51,2.56c-15.536,0 -29.601,-3.237 -42.195,-9.71c-12.594,-6.474 -22.393,-16.154 -29.396,-29.043c-7.003,-12.888 -10.505,-27.983 -10.505,-45.285c0,-13.536 1.854,-25.747 5.561,-36.634c3.708,-10.888 7.916,-18.921 12.624,-24.099c3.413,-3.767 8.71,-8.092 15.889,-12.977c7.18,-4.884 14.301,-8.739 21.363,-11.564c9.298,-3.884 19.362,-5.826 30.19,-5.826c13.183,0 25.1,3.001 35.752,9.004c10.652,6.003 18.449,14.183 23.393,24.54c4.943,10.358 7.415,22.069 7.415,35.134c0,3.296 -0.236,7.298 -0.706,12.006c-8.475,1.647 -16.066,2.707 -22.775,3.177c-12.712,0.942 -25.424,1.413 -38.135,1.413l-56.673,0c0.235,16.831 3.148,30.455 8.739,40.871c5.591,10.417 13.3,18.097 23.128,23.04c9.828,4.944 20.039,7.415 30.632,7.415c7.18,0 14.33,-1.147 21.451,-3.442c7.121,-2.296 15.919,-6.503 26.394,-12.624l2.825,3.002Zm-113.169,-72.21c3.295,0.353 9.534,0.707 18.714,1.06c17.538,0.588 29.602,0.882 36.193,0.882c15.654,0 25.953,-0.294 30.897,-0.882c0.117,-2.825 0.176,-5.003 0.176,-6.533c0,-18.596 -3.766,-32.25 -11.299,-40.959c-7.533,-8.71 -17.596,-13.065 -30.19,-13.065c-13.301,0 -24.011,4.767 -32.133,14.3c-8.121,9.534 -12.24,24.6 -12.358,45.197Z" style="fill:#fff;fill-rule:nonzero;"/><path d="M365.614,226.937l0,-7.238c9.181,-3.884 17.302,-8.004 24.364,-12.359l0,-10.593c0,-15.301 0.971,-26.1 2.913,-32.397c1.942,-6.297 4.679,-11.917 8.21,-16.861c5.296,-7.297 13.653,-16.595 25.07,-27.895c7.651,-7.415 13.3,-12.064 16.949,-13.947c4.826,-2.472 10.475,-3.708 16.949,-3.708c4.59,0 9.298,0.765 14.124,2.295l0.706,29.308l-4.061,1.589c-3.648,-3.06 -7.268,-5.297 -10.857,-6.709c-3.59,-1.412 -7.798,-2.119 -12.624,-2.119c-6.356,0 -11.534,1.295 -15.536,3.884c-4.002,2.59 -6.915,6.297 -8.74,11.123c-1.824,4.826 -2.736,14.654 -2.736,29.484l0,36.546l18.714,0c9.416,0 18.656,-0.353 27.719,-1.059l1.765,1.059l-3.531,18.185c-10.24,-0.471 -17.773,-0.706 -22.598,-0.706c-4.944,0 -12.3,0.235 -22.069,0.706l0,63.205c0,7.768 0.294,21.951 0.883,42.549c0.117,7.297 0.412,11.946 0.882,13.947c0.471,2.001 1.089,3.443 1.854,4.326c0.765,0.883 2.031,1.618 3.796,2.207c3.531,1.059 13.065,2.118 28.601,3.178l0,10.063c-27.424,-0.824 -44.137,-1.236 -50.14,-1.236c-5.414,0 -20.539,0.412 -45.374,1.236l0,-10.063l16.773,-0.177c2.471,-0.118 4.384,-0.559 5.738,-1.324c1.353,-0.765 2.383,-1.736 3.089,-2.913c1.295,-2.354 2.119,-6.533 2.472,-12.535c0,-1.53 0.353,-18.42 1.059,-50.67l0,-61.793l-24.364,1.412Z" style="fill:#fff;fill-rule:nonzero;"/><path d="M517.801,324.57c5.885,0 10.858,2.06 14.918,6.179c4.061,4.12 6.091,9.122 6.091,15.007c0,5.767 -2.059,10.711 -6.179,14.83c-4.119,4.12 -9.063,6.18 -14.83,6.18c-5.885,0 -10.887,-2.06 -15.007,-6.18c-4.119,-4.119 -6.179,-9.063 -6.179,-14.83c0,-5.885 2.06,-10.887 6.179,-15.007c4.12,-4.119 9.122,-6.179 15.007,-6.179Z" style="fill:#fff;fill-rule:nonzero;"/><path d="M605.723,116.416c5.532,0 10.24,1.943 14.124,5.827c3.884,3.884 5.826,8.592 5.826,14.124c0,5.414 -1.942,10.063 -5.826,13.947c-3.884,3.884 -8.592,5.826 -14.124,5.826c-5.414,0 -10.093,-1.942 -14.036,-5.826c-3.943,-3.884 -5.914,-8.533 -5.914,-13.947c0,-5.532 1.942,-10.24 5.826,-14.124c3.884,-3.884 8.592,-5.827 14.124,-5.827Zm-52.259,348.335l-2.118,-12.535c4.001,0.353 6.709,0.53 8.121,0.53c3.649,0 6.885,-0.765 9.71,-2.295c4.002,-2.001 7.621,-5.15 10.858,-9.446c3.237,-4.296 5.709,-9.769 7.415,-16.419c1.707,-6.65 2.825,-17.655 3.355,-33.015c0.529,-15.36 0.794,-25.335 0.794,-29.925l0,-99.045c0,-3.061 -0.176,-10.77 -0.529,-23.129c-0.236,-7.768 -0.766,-12.829 -1.589,-15.183c-0.471,-1.177 -1.236,-2.119 -2.296,-2.825c-1.765,-1.177 -4.884,-1.765 -9.357,-1.765c-6.473,0 -11.593,-0.059 -15.36,-0.177l0,-10.063c25.306,-2.825 43.667,-7.357 55.084,-13.595c1.883,-1.059 3.355,-1.589 4.414,-1.589c0.824,0 1.501,0.295 2.03,0.883c0.53,0.589 0.795,1.471 0.795,2.648c0,0.942 -0.059,2.119 -0.177,3.531c-0.353,3.178 -0.647,8.004 -0.883,14.478c-0.588,12.24 -1,26.188 -1.235,41.842c-0.471,22.952 -0.707,35.899 -0.707,38.841l0.53,48.552c0,31.19 -2.354,54.083 -7.062,68.678c-3.413,10.358 -8.239,19.509 -14.477,27.454c-6.238,7.944 -12.859,13.888 -19.862,17.831c-7.003,3.943 -14.86,5.915 -23.57,5.915c-0.941,0 -2.236,-0.059 -3.884,-0.177Z" style="fill:#fff;fill-rule:nonzero;"/><path d="M663.985,311.682l10.593,0c0.118,6.826 0.471,12.241 1.059,16.242c0.589,4.002 1.589,7.916 3.002,11.741c1.412,3.825 3.59,7.062 6.532,9.71c2.943,2.649 6.15,4.708 9.622,6.18c3.472,1.471 7.003,2.442 10.593,2.913c3.59,0.47 9.034,0.706 16.331,0.706c12.006,0 21.863,-3.178 29.572,-9.534c7.71,-6.356 11.564,-15.066 11.564,-26.129c0,-4.944 -1.206,-9.299 -3.619,-13.065c-2.413,-3.767 -5.885,-6.709 -10.416,-8.828c-4.532,-2.118 -14.272,-4.884 -29.219,-8.298c-14.948,-3.413 -24.6,-5.885 -28.955,-7.415c-6.591,-2.471 -11.829,-5.473 -15.713,-9.004c-3.884,-3.531 -6.974,-8.003 -9.269,-13.418c-2.295,-5.414 -3.443,-11.299 -3.443,-17.655c0,-9.298 2.443,-17.861 7.327,-25.688c4.885,-7.827 12.565,-14.183 23.04,-19.067c10.476,-4.885 21.893,-7.327 34.251,-7.327c7.415,0 16.007,1.03 25.776,3.089c9.77,2.06 17.714,4.62 23.835,7.68c-0.824,13.065 -1.413,26.365 -1.766,39.901l-10.063,0c-0.589,-8.592 -1.265,-14.242 -2.03,-16.949c-0.765,-2.707 -1.795,-5.12 -3.09,-7.239c-1.295,-2.118 -3.531,-4.384 -6.709,-6.797c-3.178,-2.413 -7.268,-4.561 -12.27,-6.444c-5.003,-1.883 -11.152,-2.825 -18.45,-2.825c-10.357,0 -18.685,3.06 -24.982,9.181c-6.297,6.12 -9.445,13.3 -9.445,21.539c0,4.59 0.912,8.533 2.736,11.829c1.825,3.296 4.267,5.973 7.327,8.033c3.06,2.06 7.356,3.914 12.888,5.561l29.308,7.239c14.83,3.766 25.041,7.003 30.631,9.71c5.591,2.707 10.093,6.915 13.507,12.624c3.413,5.708 5.12,12.564 5.12,20.568c0,15.889 -6.562,29.749 -19.686,41.578c-13.124,11.828 -30.69,17.743 -52.7,17.743c-10.123,0 -23.599,-1.53 -40.43,-4.59c-9.299,-1.766 -14.301,-3.002 -15.007,-3.708c-0.471,-0.353 -0.706,-0.942 -0.706,-1.766c0,-0.823 0.117,-1.824 0.353,-3.001c1.059,-5.061 1.765,-10.004 2.118,-14.83c0.353,-4.826 0.648,-14.889 0.883,-30.19Z" style="fill:#fff;fill-rule:nonzero;"/></g></g></svg>