<?xml version="1.0" encoding="UTF-8" standalone="no"?><!DOCTYPE svg PUBLIC "-//W3C//DTD SVG 1.1//EN" "http://www.w3.org/Graphics/SVG/1.1/DTD/svg11.dtd"><svg width="100%" height="100%" viewBox="0 0 1024 1024" version="1.1" xmlns="http://www.w3.org/2000/svg" xmlns:xlink="http://www.w3.org/1999/xlink" xml:space="preserve" style="fill-rule:evenodd;clip-rule:evenodd;stroke-linejoin:round;stroke-miterlimit:1.41421;"><rect id="画板1" x="0" y="0" width="1024" height="1024" style="fill:none;"/><clipPath id="_clip1"><rect id="画板11" x="0" y="0" width="1024" height="1024"/></clipPath><g clip-path="url(#_clip1)"><rect x="0" y="0" width="1024" height="1024" style="fill:#ffb200;"/><path d="M639.76,848.912l-13.438,30.234c-19.316,12.038 -33.454,20.017 -42.412,23.936c-13.157,5.879 -28.205,10.848 -45.141,14.907c-16.937,4.06 -34.784,6.089 -53.54,6.089c-36.954,0 -70.407,-7.698 -100.362,-23.096c-29.954,-15.397 -53.26,-38.422 -69.917,-69.077c-16.657,-30.654 -24.985,-66.557 -24.985,-107.71c0,-32.194 4.409,-61.238 13.227,-87.133c8.819,-25.896 18.827,-45.002 30.025,-57.32c8.118,-8.958 20.716,-19.246 37.793,-30.864c17.077,-11.618 34.013,-20.786 50.81,-27.505c22.116,-9.238 46.052,-13.857 71.807,-13.857c31.354,0 59.699,7.138 85.034,21.416c25.335,14.277 43.882,33.733 55.64,58.369c11.758,24.635 17.637,52.49 17.637,83.564c0,7.839 -0.56,17.357 -1.68,28.555c-20.156,3.919 -38.213,6.439 -54.17,7.559c-30.234,2.239 -60.469,3.359 -90.703,3.359l-134.795,0c0.56,40.032 7.488,72.436 20.786,97.212c13.298,24.775 31.634,43.042 55.01,54.8c23.375,11.757 47.661,17.636 72.856,17.636c17.077,0 34.084,-2.729 51.021,-8.188c16.937,-5.459 37.863,-15.467 62.778,-30.025l6.719,7.139Zm-269.17,-171.748c7.838,0.84 22.676,1.68 44.512,2.52c41.712,1.399 70.406,2.099 86.084,2.099c37.233,0 61.728,-0.7 73.486,-2.099c0.28,-6.719 0.42,-11.898 0.42,-15.538c0,-44.231 -8.959,-76.705 -26.875,-97.421c-17.917,-20.717 -41.852,-31.075 -71.807,-31.075c-31.634,0 -57.109,11.338 -76.426,34.014c-19.316,22.676 -29.114,58.509 -29.394,107.5Z" style="fill:#fff;fill-rule:nonzero;"/><path d="M712.406,585.621l0,-17.217c21.836,-9.238 41.153,-19.036 57.949,-29.394l0,-25.196c0,-36.393 2.31,-62.078 6.929,-77.055c4.619,-14.977 11.128,-28.345 19.527,-40.103c12.597,-17.357 32.474,-39.472 59.628,-66.347c18.197,-17.637 31.635,-28.695 40.313,-33.174c11.478,-5.879 24.915,-8.819 40.312,-8.819c10.918,0 22.116,1.82 33.594,5.459l1.68,69.707l-9.658,3.78c-8.679,-7.279 -17.287,-12.598 -25.826,-15.957c-8.538,-3.36 -18.546,-5.039 -30.024,-5.039c-15.117,0 -27.435,3.079 -36.953,9.238c-9.518,6.159 -16.447,14.977 -20.786,26.455c-4.339,11.478 -6.509,34.854 -6.509,70.127l0,86.924l44.512,0c22.396,0 44.371,-0.84 65.927,-2.52l4.2,2.52l-8.399,43.252c-24.355,-1.12 -42.272,-1.68 -53.75,-1.68c-11.758,0 -29.254,0.56 -52.49,1.68l0,150.332c0,18.476 0.7,52.21 2.1,101.201c0.28,17.357 0.979,28.415 2.099,33.174c1.12,4.759 2.59,8.188 4.409,10.288c1.82,2.099 4.83,3.849 9.029,5.249c8.398,2.519 31.074,5.039 68.027,7.558l0,23.936c-65.228,-1.96 -104.98,-2.939 -119.258,-2.939c-12.877,0 -48.851,0.979 -107.92,2.939l0,-23.936l39.893,-0.419c5.879,-0.28 10.428,-1.33 13.647,-3.15c3.22,-1.82 5.669,-4.129 7.349,-6.929c3.079,-5.599 5.039,-15.537 5.879,-29.814c0,-3.639 0.84,-43.812 2.519,-120.518l0,-146.972l-57.949,3.359Z" style="fill:#fff;fill-rule:nonzero;"/></g></svg>